# xmcd
#
# Track frame offsets:
#	150
#	16317
#	35667
#	47655
#	62947
#	74685
#	92295
#	103415
#	119362
#	141027
#	161377
#	166710
#	182485
#	188182
#	194787
#	209205
#	222997
#	232800
#	246155
#
# Disc length: 3760 seconds
#
# Revision: 0
# Processed by: cddbd v1.5.2PL0 Copyright (c) Steve Scherf et al.
# Submitted via: EasyCDDAExtractor 16.0.6.1
#
DISCID=1a0eae13
DTITLE=Ζέρβας Κώστας - Γρεβενιώτικα τραγούδια
DYEAR=1900
DGENRE=Παραδοσιακή
TTITLE0=Οργανικό [παραδοσιακό]
TTITLE1=Πού ήσουν εχτές λεβέντη μου [παραδοσιακό]
TTITLE2=Ρίχνω το μαντηλάκι μου [παραδοσιακό]
TTITLE3=Ζιακάς [παραδοσιακό]
TTITLE4=Τρεις χρόνους έχω πόλεμο [παραδοσιακό]
TTITLE5=Κοντούλα Βλάχα [παραδοσιακό]
TTITLE6=Χτες το βράδυ στο πηγάδι [Π. Τζούμας]
TTITLE7=Μένα η μάνα μου μ' έχει μοναχό [παραδοσιακό]
TTITLE8=Γιατί μαρή [παραδοσιακό]
TTITLE9=Αγαπώ μιά νιά [παραδοσιακό]
TTITLE10=Για πάρε με [παραδοσιακό]
TTITLE11=Πότ-πουρί από βλάχικα [παραδοσιακό]
TTITLE12=Βάζω φωτιά στην καλαμιά [παραδοσιακό]
TTITLE13=Κορίτσι φιλημένο [παραδοσιακό]
TTITLE14=Τον άνθρωπο τον μερακλή [Π. Ζώσιμας]
TTITLE15=Βλάχικο [παραδοσιακό]
TTITLE16=Πού πας αγγελικό κορμί [παραδοσιακό]
TTITLE17=Φραγγίτσα [παραδοσιακό]
TTITLE18=Γυναίκες που χορεύεται [παραδοσιακό]
EXTD=
EXTT0=
EXTT1=
EXTT2=
EXTT3=
EXTT4=
EXTT5=
EXTT6=
EXTT7=
EXTT8=
EXTT9=
EXTT10=
EXTT11=
EXTT12=
EXTT13=
EXTT14=
EXTT15=
EXTT16=
EXTT17=
EXTT18=
PLAYORDER=
